<?xml version="1.0" encoding="utf-8" standalone="no"?>
<!DOCTYPE svg PUBLIC "-//W3C//DTD SVG 1.1//EN"
  "http://www.w3.org/Graphics/SVG/1.1/DTD/svg11.dtd">
<!-- Created with matplotlib (http://matplotlib.sourceforge.net/) -->
<svg height="288pt" version="1.1" viewBox="0 0 432 288" width="432pt" xmlns="http://www.w3.org/2000/svg" xmlns:xlink="http://www.w3.org/1999/xlink">
 <defs>
  <style type="text/css">
*{stroke-linecap:square;stroke-linejoin:round;}
  </style>
 </defs>
 <g id="figure_1">
  <g id="patch_1">
   <path d="
M0 288
L432 288
L432 0
L0 0
z
" style="fill:#ffffff;"/>
  </g>
  <g id="axes_1">
   <g id="patch_2">
    <path d="
M54 252
L388.8 252
L388.8 28.8
L54 28.8
z
" style="fill:#ffffff;"/>
   </g>
   <g id="line2d_1">
    <path clip-path="url(#p124b8dd147)" d="
M54 140.4
L65.4789 113.872
L71.6966 100.044
L76.9577 88.8654
L81.7406 79.2405
L86.0451 71.098
L89.8714 64.3291
L93.2194 58.8041
L96.5674 53.6788
L99.9154 48.9782
L102.785 45.3047
L105.655 41.9735
L108.525 38.9965
L111.394 36.3844
L113.786 34.4933
L116.177 32.8669
L118.569 31.5093
L120.96 30.4238
L123.351 29.6132
L125.743 29.0796
L128.134 28.8241
L130.047 28.8206
L131.961 28.9955
L134.352 29.4648
L136.743 30.2113
L139.135 31.2333
L141.526 32.5281
L143.918 34.0925
L146.309 35.9226
L148.701 38.0139
L151.57 40.8608
L154.44 44.0658
L157.31 47.6176
L160.179 51.5033
L163.527 56.4399
L166.875 61.7878
L170.702 68.3695
L174.528 75.4119
L178.833 83.8292
L183.615 93.7157
L188.877 105.126
L195.094 119.149
L205.138 142.454
L216.139 167.838
L222.357 181.63
L227.618 192.765
L232.401 202.342
L236.705 210.435
L240.531 217.155
L243.879 222.633
L247.227 227.709
L250.575 232.357
L253.445 235.983
L256.315 239.265
L259.185 242.192
L261.576 244.351
L263.967 246.251
L266.359 247.885
L268.75 249.252
L271.142 250.346
L273.533 251.165
L275.925 251.708
L278.316 251.972
L280.229 251.983
L282.142 251.815
L284.534 251.354
L286.925 250.617
L289.317 249.604
L291.708 248.317
L294.099 246.761
L296.491 244.94
L298.882 242.857
L301.752 240.019
L304.622 236.824
L307.491 233.281
L310.361 229.404
L313.709 224.477
L317.057 219.138
L320.883 212.566
L324.71 205.533
L329.014 197.124
L333.797 187.246
L339.058 175.843
L345.276 161.826
L354.363 140.755
L354.363 140.755" style="fill:none;stroke:#0000ff;stroke-width:2;"/>
   </g>
   <g id="line2d_2">
    <path clip-path="url(#p124b8dd147)" d="
M54 140.4
L61.1743 107.42
L65.0006 90.8554
L68.3486 77.3859
L71.2183 66.8127
L73.6097 58.8041
L76.0011 51.6109
L77.9143 46.4918
L79.8274 41.9735
L81.7406 38.0848
L83.1754 35.5965
L84.6103 33.4854
L86.0451 31.7591
L87.48 30.4238
L88.9149 29.4843
L89.8714 29.0796
L90.828 28.8529
L91.7846 28.8047
L92.7411 28.9351
L93.6977 29.2437
L94.6543 29.7302
L96.0891 30.7916
L97.524 32.2474
L98.9589 34.0925
L100.394 36.3202
L101.829 38.9224
L103.742 42.9584
L105.655 47.6176
L107.568 52.8703
L109.959 60.2193
L112.351 68.3695
L115.221 79.0919
L118.09 90.6962
L121.438 105.126
L126.221 126.864
L137.222 177.45
L141.048 193.748
L143.918 205.099
L146.787 215.519
L149.179 223.383
L151.57 230.419
L153.483 235.402
L155.397 239.778
L157.31 243.518
L158.745 245.892
L160.179 247.885
L161.614 249.492
L163.049 250.707
L164.484 251.524
L165.441 251.847
L166.397 251.991
L167.354 251.957
L168.31 251.745
L169.267 251.354
L170.223 250.786
L171.658 249.604
L173.093 248.028
L174.528 246.064
L175.963 243.721
L177.398 241.006
L179.311 236.824
L181.224 232.025
L183.137 226.641
L185.529 219.138
L187.92 210.849
L190.79 199.981
L193.659 188.256
L197.486 171.583
L202.747 147.447
L211.356 107.76
L215.182 91.1742
L218.53 77.6796
L221.4 67.0803
L223.791 59.0471
L226.183 51.8267
L228.096 46.6844
L230.009 42.1416
L231.922 38.2272
L233.357 35.7192
L234.792 33.5879
L236.227 31.841
L237.662 30.4848
L239.097 29.5242
L240.053 29.1053
L241.01 28.8644
L241.966 28.802
L242.923 28.9181
L243.879 29.2126
L244.836 29.685
L245.793 30.3344
L247.227 31.6384
L248.662 33.3338
L250.097 35.4145
L251.532 37.873
L252.967 40.7005
L254.88 45.0268
L256.793 49.9631
L258.706 55.4778
L261.098 63.1307
L263.489 71.5557
L266.359 82.5657
L269.707 96.4503
L273.533 113.355
L279.273 139.867
L286.447 172.87
L290.273 189.466
L293.621 202.973
L296.491 213.586
L298.882 221.631
L301.274 228.865
L303.187 234.019
L305.1 238.574
L307.013 242.501
L308.448 245.019
L309.883 247.16
L311.318 248.918
L312.753 250.284
L314.187 251.255
L315.144 251.681
L316.101 251.929
L317.057 251.999
L318.014 251.89
L318.97 251.603
L319.927 251.137
L320.883 250.495
L322.318 249.201
L323.753 247.516
L325.188 245.446
L326.623 242.997
L328.058 240.179
L329.971 235.865
L331.884 230.941
L333.797 225.437
L336.189 217.797
L338.58 209.384
L341.45 198.386
L344.798 184.513
L348.624 167.618
L354.363 141.111
L354.363 141.111" style="fill:none;stroke:#008000;stroke-width:2;"/>
   </g>
   <g id="matplotlib.axis_1">
    <g id="xtick_1">
     <g id="line2d_3">
      <defs>
       <path d="
M0 0
L0 -4" id="m0012dd4eef" style="stroke:#000000;stroke-linecap:butt;stroke-width:0.5;"/>
      </defs>
      <g>
       <use style="stroke:#000000;stroke-linecap:butt;stroke-width:0.5;" x="54.0" xlink:href="#m0012dd4eef" y="252.0"/>
      </g>
     </g>
     <g id="line2d_4">
      <defs>
       <path d="
M0 0
L0 4" id="m476344969c" style="stroke:#000000;stroke-linecap:butt;stroke-width:0.5;"/>
      </defs>
      <g>
       <use style="stroke:#000000;stroke-linecap:butt;stroke-width:0.5;" x="54.0" xlink:href="#m476344969c" y="28.8"/>
      </g>
     </g>
     <g id="text_1">
      <!-- 0 -->
      <defs>
       <path d="
M31.7812 66.4062
Q24.1719 66.4062 20.3281 58.9062
Q16.5 51.4219 16.5 36.375
Q16.5 21.3906 20.3281 13.8906
Q24.1719 6.39062 31.7812 6.39062
Q39.4531 6.39062 43.2812 13.8906
Q47.125 21.3906 47.125 36.375
Q47.125 51.4219 43.2812 58.9062
Q39.4531 66.4062 31.7812 66.4062
M31.7812 74.2188
Q44.0469 74.2188 50.5156 64.5156
Q56.9844 54.8281 56.9844 36.375
Q56.9844 17.9688 50.5156 8.26562
Q44.0469 -1.42188 31.7812 -1.42188
Q19.5312 -1.42188 13.0625 8.26562
Q6.59375 17.9688 6.59375 36.375
Q6.59375 54.8281 13.0625 64.5156
Q19.5312 74.2188 31.7812 74.2188" id="DejaVuSans-30"/>
      </defs>
      <g transform="translate(51.48046875 263.421875)scale(0.1 -0.1)">
       <use xlink:href="#DejaVuSans-30"/>
      </g>
     </g>
    </g>
    <g id="xtick_2">
     <g id="line2d_5">
      <g>
       <use style="stroke:#000000;stroke-linecap:butt;stroke-width:0.5;" x="101.828571429" xlink:href="#m0012dd4eef" y="252.0"/>
      </g>
     </g>
     <g id="line2d_6">
      <g>
       <use style="stroke:#000000;stroke-linecap:butt;stroke-width:0.5;" x="101.828571429" xlink:href="#m476344969c" y="28.8"/>
      </g>
     </g>
     <g id="text_2">
      <!-- 1 -->
      <defs>
       <path d="
M12.4062 8.29688
L28.5156 8.29688
L28.5156 63.9219
L10.9844 60.4062
L10.9844 69.3906
L28.4219 72.9062
L38.2812 72.9062
L38.2812 8.29688
L54.3906 8.29688
L54.3906 0
L12.4062 0
z
" id="DejaVuSans-31"/>
      </defs>
      <g transform="translate(99.6582589286 263.290625)scale(0.1 -0.1)">
       <use xlink:href="#DejaVuSans-31"/>
      </g>
     </g>
    </g>
    <g id="xtick_3">
     <g id="line2d_7">
      <g>
       <use style="stroke:#000000;stroke-linecap:butt;stroke-width:0.5;" x="149.657142857" xlink:href="#m0012dd4eef" y="252.0"/>
      </g>
     </g>
     <g id="line2d_8">
      <g>
       <use style="stroke:#000000;stroke-linecap:butt;stroke-width:0.5;" x="149.657142857" xlink:href="#m476344969c" y="28.8"/>
      </g>
     </g>
     <g id="text_3">
      <!-- 2 -->
      <defs>
       <path d="
M19.1875 8.29688
L53.6094 8.29688
L53.6094 0
L7.32812 0
L7.32812 8.29688
Q12.9375 14.1094 22.625 23.8906
Q32.3281 33.6875 34.8125 36.5312
Q39.5469 41.8438 41.4219 45.5312
Q43.3125 49.2188 43.3125 52.7812
Q43.3125 58.5938 39.2344 62.25
Q35.1562 65.9219 28.6094 65.9219
Q23.9688 65.9219 18.8125 64.3125
Q13.6719 62.7031 7.8125 59.4219
L7.8125 69.3906
Q13.7656 71.7812 18.9375 73
Q24.125 74.2188 28.4219 74.2188
Q39.75 74.2188 46.4844 68.5469
Q53.2188 62.8906 53.2188 53.4219
Q53.2188 48.9219 51.5312 44.8906
Q49.8594 40.875 45.4062 35.4062
Q44.1875 33.9844 37.6406 27.2188
Q31.1094 20.4531 19.1875 8.29688" id="DejaVuSans-32"/>
      </defs>
      <g transform="translate(147.343080357 263.421875)scale(0.1 -0.1)">
       <use xlink:href="#DejaVuSans-32"/>
      </g>
     </g>
    </g>
    <g id="xtick_4">
     <g id="line2d_9">
      <g>
       <use style="stroke:#000000;stroke-linecap:butt;stroke-width:0.5;" x="197.485714286" xlink:href="#m0012dd4eef" y="252.0"/>
      </g>
     </g>
     <g id="line2d_10">
      <g>
       <use style="stroke:#000000;stroke-linecap:butt;stroke-width:0.5;" x="197.485714286" xlink:href="#m476344969c" y="28.8"/>
      </g>
     </g>
     <g id="text_4">
      <!-- 3 -->
      <defs>
       <path d="
M40.5781 39.3125
Q47.6562 37.7969 51.625 33
Q55.6094 28.2188 55.6094 21.1875
Q55.6094 10.4062 48.1875 4.48438
Q40.7656 -1.42188 27.0938 -1.42188
Q22.5156 -1.42188 17.6562 -0.515625
Q12.7969 0.390625 7.625 2.20312
L7.625 11.7188
Q11.7188 9.32812 16.5938 8.10938
Q21.4844 6.89062 26.8125 6.89062
Q36.0781 6.89062 40.9375 10.5469
Q45.7969 14.2031 45.7969 21.1875
Q45.7969 27.6406 41.2812 31.2656
Q36.7656 34.9062 28.7188 34.9062
L20.2188 34.9062
L20.2188 43.0156
L29.1094 43.0156
Q36.375 43.0156 40.2344 45.9219
Q44.0938 48.8281 44.0938 54.2969
Q44.0938 59.9062 40.1094 62.9062
Q36.1406 65.9219 28.7188 65.9219
Q24.6562 65.9219 20.0156 65.0312
Q15.375 64.1562 9.8125 62.3125
L9.8125 71.0938
Q15.4375 72.6562 20.3438 73.4375
Q25.25 74.2188 29.5938 74.2188
Q40.8281 74.2188 47.3594 69.1094
Q53.9062 64.0156 53.9062 55.3281
Q53.9062 49.2656 50.4375 45.0938
Q46.9688 40.9219 40.5781 39.3125" id="DejaVuSans-33"/>
      </defs>
      <g transform="translate(195.086495536 263.421875)scale(0.1 -0.1)">
       <use xlink:href="#DejaVuSans-33"/>
      </g>
     </g>
    </g>
    <g id="xtick_5">
     <g id="line2d_11">
      <g>
       <use style="stroke:#000000;stroke-linecap:butt;stroke-width:0.5;" x="245.314285714" xlink:href="#m0012dd4eef" y="252.0"/>
      </g>
     </g>
     <g id="line2d_12">
      <g>
       <use style="stroke:#000000;stroke-linecap:butt;stroke-width:0.5;" x="245.314285714" xlink:href="#m476344969c" y="28.8"/>
      </g>
     </g>
     <g id="text_5">
      <!-- 4 -->
      <defs>
       <path d="
M37.7969 64.3125
L12.8906 25.3906
L37.7969 25.3906
z

M35.2031 72.9062
L47.6094 72.9062
L47.6094 25.3906
L58.0156 25.3906
L58.0156 17.1875
L47.6094 17.1875
L47.6094 0
L37.7969 0
L37.7969 17.1875
L4.89062 17.1875
L4.89062 26.7031
z
" id="DejaVuSans-34"/>
      </defs>
      <g transform="translate(242.658035714 263.290625)scale(0.1 -0.1)">
       <use xlink:href="#DejaVuSans-34"/>
      </g>
     </g>
    </g>
    <g id="xtick_6">
     <g id="line2d_13">
      <g>
       <use style="stroke:#000000;stroke-linecap:butt;stroke-width:0.5;" x="293.142857143" xlink:href="#m0012dd4eef" y="252.0"/>
      </g>
     </g>
     <g id="line2d_14">
      <g>
       <use style="stroke:#000000;stroke-linecap:butt;stroke-width:0.5;" x="293.142857143" xlink:href="#m476344969c" y="28.8"/>
      </g>
     </g>
     <g id="text_6">
      <!-- 5 -->
      <defs>
       <path d="
M10.7969 72.9062
L49.5156 72.9062
L49.5156 64.5938
L19.8281 64.5938
L19.8281 46.7344
Q21.9688 47.4688 24.1094 47.8281
Q26.2656 48.1875 28.4219 48.1875
Q40.625 48.1875 47.75 41.5
Q54.8906 34.8125 54.8906 23.3906
Q54.8906 11.625 47.5625 5.09375
Q40.2344 -1.42188 26.9062 -1.42188
Q22.3125 -1.42188 17.5469 -0.640625
Q12.7969 0.140625 7.71875 1.70312
L7.71875 11.625
Q12.1094 9.23438 16.7969 8.0625
Q21.4844 6.89062 26.7031 6.89062
Q35.1562 6.89062 40.0781 11.3281
Q45.0156 15.7656 45.0156 23.3906
Q45.0156 31 40.0781 35.4375
Q35.1562 39.8906 26.7031 39.8906
Q22.75 39.8906 18.8125 39.0156
Q14.8906 38.1406 10.7969 36.2812
z
" id="DejaVuSans-35"/>
      </defs>
      <g transform="translate(290.784263393 263.290625)scale(0.1 -0.1)">
       <use xlink:href="#DejaVuSans-35"/>
      </g>
     </g>
    </g>
    <g id="xtick_7">
     <g id="line2d_15">
      <g>
       <use style="stroke:#000000;stroke-linecap:butt;stroke-width:0.5;" x="340.971428571" xlink:href="#m0012dd4eef" y="252.0"/>
      </g>
     </g>
     <g id="line2d_16">
      <g>
       <use style="stroke:#000000;stroke-linecap:butt;stroke-width:0.5;" x="340.971428571" xlink:href="#m476344969c" y="28.8"/>
      </g>
     </g>
     <g id="text_7">
      <!-- 6 -->
      <defs>
       <path d="
M33.0156 40.375
Q26.375 40.375 22.4844 35.8281
Q18.6094 31.2969 18.6094 23.3906
Q18.6094 15.5312 22.4844 10.9531
Q26.375 6.39062 33.0156 6.39062
Q39.6562 6.39062 43.5312 10.9531
Q47.4062 15.5312 47.4062 23.3906
Q47.4062 31.2969 43.5312 35.8281
Q39.6562 40.375 33.0156 40.375
M52.5938 71.2969
L52.5938 62.3125
Q48.875 64.0625 45.0938 64.9844
Q41.3125 65.9219 37.5938 65.9219
Q27.8281 65.9219 22.6719 59.3281
Q17.5312 52.7344 16.7969 39.4062
Q19.6719 43.6562 24.0156 45.9219
Q28.375 48.1875 33.5938 48.1875
Q44.5781 48.1875 50.9531 41.5156
Q57.3281 34.8594 57.3281 23.3906
Q57.3281 12.1562 50.6875 5.35938
Q44.0469 -1.42188 33.0156 -1.42188
Q20.3594 -1.42188 13.6719 8.26562
Q6.98438 17.9688 6.98438 36.375
Q6.98438 53.6562 15.1875 63.9375
Q23.3906 74.2188 37.2031 74.2188
Q40.9219 74.2188 44.7031 73.4844
Q48.4844 72.75 52.5938 71.2969" id="DejaVuSans-36"/>
      </defs>
      <g transform="translate(338.454241071 263.421875)scale(0.1 -0.1)">
       <use xlink:href="#DejaVuSans-36"/>
      </g>
     </g>
    </g>
    <g id="xtick_8">
     <g id="line2d_17">
      <g>
       <use style="stroke:#000000;stroke-linecap:butt;stroke-width:0.5;" x="388.8" xlink:href="#m0012dd4eef" y="252.0"/>
      </g>
     </g>
     <g id="line2d_18">
      <g>
       <use style="stroke:#000000;stroke-linecap:butt;stroke-width:0.5;" x="388.8" xlink:href="#m476344969c" y="28.8"/>
      </g>
     </g>
     <g id="text_8">
      <!-- 7 -->
      <defs>
       <path d="
M8.20312 72.9062
L55.0781 72.9062
L55.0781 68.7031
L28.6094 0
L18.3125 0
L43.2188 64.5938
L8.20312 64.5938
z
" id="DejaVuSans-37"/>
      </defs>
      <g transform="translate(386.45625 263.290625)scale(0.1 -0.1)">
       <use xlink:href="#DejaVuSans-37"/>
      </g>
     </g>
    </g>
    <g id="text_9">
     <!-- Time -->
     <defs>
      <path d="
M52 44.1875
Q55.375 50.25 60.0625 53.125
Q64.75 56 71.0938 56
Q79.6406 56 84.2812 50.0156
Q88.9219 44.0469 88.9219 33.0156
L88.9219 0
L79.8906 0
L79.8906 32.7188
Q79.8906 40.5781 77.0938 44.375
Q74.3125 48.1875 68.6094 48.1875
Q61.625 48.1875 57.5625 43.5469
Q53.5156 38.9219 53.5156 30.9062
L53.5156 0
L44.4844 0
L44.4844 32.7188
Q44.4844 40.625 41.7031 44.4062
Q38.9219 48.1875 33.1094 48.1875
Q26.2188 48.1875 22.1562 43.5312
Q18.1094 38.875 18.1094 30.9062
L18.1094 0
L9.07812 0
L9.07812 54.6875
L18.1094 54.6875
L18.1094 46.1875
Q21.1875 51.2188 25.4844 53.6094
Q29.7812 56 35.6875 56
Q41.6562 56 45.8281 52.9688
Q50 49.9531 52 44.1875" id="DejaVuSans-6d"/>
      <path d="
M9.42188 54.6875
L18.4062 54.6875
L18.4062 0
L9.42188 0
z

M9.42188 75.9844
L18.4062 75.9844
L18.4062 64.5938
L9.42188 64.5938
z
" id="DejaVuSans-69"/>
      <path d="
M56.2031 29.5938
L56.2031 25.2031
L14.8906 25.2031
Q15.4844 15.9219 20.4844 11.0625
Q25.4844 6.20312 34.4219 6.20312
Q39.5938 6.20312 44.4531 7.46875
Q49.3125 8.73438 54.1094 11.2812
L54.1094 2.78125
Q49.2656 0.734375 44.1875 -0.34375
Q39.1094 -1.42188 33.8906 -1.42188
Q20.7969 -1.42188 13.1562 6.1875
Q5.51562 13.8125 5.51562 26.8125
Q5.51562 40.2344 12.7656 48.1094
Q20.0156 56 32.3281 56
Q43.3594 56 49.7812 48.8906
Q56.2031 41.7969 56.2031 29.5938
M47.2188 32.2344
Q47.125 39.5938 43.0938 43.9844
Q39.0625 48.3906 32.4219 48.3906
Q24.9062 48.3906 20.3906 44.1406
Q15.875 39.8906 15.1875 32.1719
z
" id="DejaVuSans-65"/>
      <path d="
M-0.296875 72.9062
L61.375 72.9062
L61.375 64.5938
L35.5 64.5938
L35.5 0
L25.5938 0
L25.5938 64.5938
L-0.296875 64.5938
z
" id="DejaVuSans-54"/>
     </defs>
     <g transform="translate(203.426953125 279.96171875)scale(0.15 -0.15)">
      <use xlink:href="#DejaVuSans-54"/>
      <use x="57.958984375" xlink:href="#DejaVuSans-69"/>
      <use x="85.7421875" xlink:href="#DejaVuSans-6d"/>
      <use x="183.154296875" xlink:href="#DejaVuSans-65"/>
     </g>
    </g>
   </g>
   <g id="matplotlib.axis_2">
    <g id="ytick_1">
     <g id="line2d_19">
      <defs>
       <path d="
M0 0
L4 0" id="me8a85f7bf6" style="stroke:#000000;stroke-linecap:butt;stroke-width:0.5;"/>
      </defs>
      <g>
       <use style="stroke:#000000;stroke-linecap:butt;stroke-width:0.5;" x="54.0" xlink:href="#me8a85f7bf6" y="252.0"/>
      </g>
     </g>
     <g id="line2d_20">
      <defs>
       <path d="
M0 0
L-4 0" id="m1a32005dea" style="stroke:#000000;stroke-linecap:butt;stroke-width:0.5;"/>
      </defs>
      <g>
       <use style="stroke:#000000;stroke-linecap:butt;stroke-width:0.5;" x="388.8" xlink:href="#m1a32005dea" y="252.0"/>
      </g>
     </g>
     <g id="text_10">
      <!-- −1.0 -->
      <defs>
       <path d="
M10.6875 12.4062
L21 12.4062
L21 0
L10.6875 0
z
" id="DejaVuSans-2e"/>
       <path d="
M10.5938 35.5
L73.1875 35.5
L73.1875 27.2031
L10.5938 27.2031
z
" id="DejaVuSans-2212"/>
      </defs>
      <g transform="translate(27.440625 255.63984375)scale(0.1 -0.1)">
       <use xlink:href="#DejaVuSans-2212"/>
       <use x="83.7890625" xlink:href="#DejaVuSans-31"/>
       <use x="147.412109375" xlink:href="#DejaVuSans-2e"/>
       <use x="179.19921875" xlink:href="#DejaVuSans-30"/>
      </g>
     </g>
    </g>
    <g id="ytick_2">
     <g id="line2d_21">
      <g>
       <use style="stroke:#000000;stroke-linecap:butt;stroke-width:0.5;" x="54.0" xlink:href="#me8a85f7bf6" y="196.2"/>
      </g>
     </g>
     <g id="line2d_22">
      <g>
       <use style="stroke:#000000;stroke-linecap:butt;stroke-width:0.5;" x="388.8" xlink:href="#m1a32005dea" y="196.2"/>
      </g>
     </g>
     <g id="text_11">
      <!-- −0.5 -->
      <g transform="translate(27.65 199.83984375)scale(0.1 -0.1)">
       <use xlink:href="#DejaVuSans-2212"/>
       <use x="83.7890625" xlink:href="#DejaVuSans-30"/>
       <use x="147.412109375" xlink:href="#DejaVuSans-2e"/>
       <use x="179.19921875" xlink:href="#DejaVuSans-35"/>
      </g>
     </g>
    </g>
    <g id="ytick_3">
     <g id="line2d_23">
      <g>
       <use style="stroke:#000000;stroke-linecap:butt;stroke-width:0.5;" x="54.0" xlink:href="#me8a85f7bf6" y="140.4"/>
      </g>
     </g>
     <g id="line2d_24">
      <g>
       <use style="stroke:#000000;stroke-linecap:butt;stroke-width:0.5;" x="388.8" xlink:href="#m1a32005dea" y="140.4"/>
      </g>
     </g>
     <g id="text_12">
      <!-- 0.0 -->
      <g transform="translate(35.4203125 144.03984375)scale(0.1 -0.1)">
       <use xlink:href="#DejaVuSans-30"/>
       <use x="63.623046875" xlink:href="#DejaVuSans-2e"/>
       <use x="95.41015625" xlink:href="#DejaVuSans-30"/>
      </g>
     </g>
    </g>
    <g id="ytick_4">
     <g id="line2d_25">
      <g>
       <use style="stroke:#000000;stroke-linecap:butt;stroke-width:0.5;" x="54.0" xlink:href="#me8a85f7bf6" y="84.6"/>
      </g>
     </g>
     <g id="line2d_26">
      <g>
       <use style="stroke:#000000;stroke-linecap:butt;stroke-width:0.5;" x="388.8" xlink:href="#m1a32005dea" y="84.6"/>
      </g>
     </g>
     <g id="text_13">
      <!-- 0.5 -->
      <g transform="translate(35.6296875 88.23984375)scale(0.1 -0.1)">
       <use xlink:href="#DejaVuSans-30"/>
       <use x="63.623046875" xlink:href="#DejaVuSans-2e"/>
       <use x="95.41015625" xlink:href="#DejaVuSans-35"/>
      </g>
     </g>
    </g>
    <g id="ytick_5">
     <g id="line2d_27">
      <g>
       <use style="stroke:#000000;stroke-linecap:butt;stroke-width:0.5;" x="54.0" xlink:href="#me8a85f7bf6" y="28.8"/>
      </g>
     </g>
     <g id="line2d_28">
      <g>
       <use style="stroke:#000000;stroke-linecap:butt;stroke-width:0.5;" x="388.8" xlink:href="#m1a32005dea" y="28.8"/>
      </g>
     </g>
     <g id="text_14">
      <!-- 1.0 -->
      <g transform="translate(35.859375 32.43984375)scale(0.1 -0.1)">
       <use xlink:href="#DejaVuSans-31"/>
       <use x="63.623046875" xlink:href="#DejaVuSans-2e"/>
       <use x="95.41015625" xlink:href="#DejaVuSans-30"/>
      </g>
     </g>
    </g>
    <g id="text_15">
     <!-- Value -->
     <defs>
      <path d="
M8.5 21.5781
L8.5 54.6875
L17.4844 54.6875
L17.4844 21.9219
Q17.4844 14.1562 20.5 10.2656
Q23.5312 6.39062 29.5938 6.39062
Q36.8594 6.39062 41.0781 11.0312
Q45.3125 15.6719 45.3125 23.6875
L45.3125 54.6875
L54.2969 54.6875
L54.2969 0
L45.3125 0
L45.3125 8.40625
Q42.0469 3.42188 37.7188 1
Q33.4062 -1.42188 27.6875 -1.42188
Q18.2656 -1.42188 13.375 4.4375
Q8.5 10.2969 8.5 21.5781
M31.1094 56
z
" id="DejaVuSans-75"/>
      <path d="
M9.42188 75.9844
L18.4062 75.9844
L18.4062 0
L9.42188 0
z
" id="DejaVuSans-6c"/>
      <path d="
M28.6094 0
L0.78125 72.9062
L11.0781 72.9062
L34.1875 11.5312
L57.3281 72.9062
L67.5781 72.9062
L39.7969 0
z
" id="DejaVuSans-56"/>
      <path d="
M34.2812 27.4844
Q23.3906 27.4844 19.1875 25
Q14.9844 22.5156 14.9844 16.5
Q14.9844 11.7188 18.1406 8.90625
Q21.2969 6.10938 26.7031 6.10938
Q34.1875 6.10938 38.7031 11.4062
Q43.2188 16.7031 43.2188 25.4844
L43.2188 27.4844
z

M52.2031 31.2031
L52.2031 0
L43.2188 0
L43.2188 8.29688
Q40.1406 3.32812 35.5469 0.953125
Q30.9531 -1.42188 24.3125 -1.42188
Q15.9219 -1.42188 10.9531 3.29688
Q6 8.01562 6 15.9219
Q6 25.1406 12.1719 29.8281
Q18.3594 34.5156 30.6094 34.5156
L43.2188 34.5156
L43.2188 35.4062
Q43.2188 41.6094 39.1406 45
Q35.0625 48.3906 27.6875 48.3906
Q23 48.3906 18.5469 47.2656
Q14.1094 46.1406 10.0156 43.8906
L10.0156 52.2031
Q14.9375 54.1094 19.5781 55.0469
Q24.2188 56 28.6094 56
Q40.4844 56 46.3438 49.8438
Q52.2031 43.7031 52.2031 31.2031" id="DejaVuSans-61"/>
     </defs>
     <g transform="translate(22.440625 160.325390625)rotate(-90.0)scale(0.15 -0.15)">
      <use xlink:href="#DejaVuSans-56"/>
      <use x="60.658203125" xlink:href="#DejaVuSans-61"/>
      <use x="121.9375" xlink:href="#DejaVuSans-6c"/>
      <use x="149.720703125" xlink:href="#DejaVuSans-75"/>
      <use x="213.099609375" xlink:href="#DejaVuSans-65"/>
     </g>
    </g>
   </g>
   <g id="patch_3">
    <path d="
M54 28.8
L388.8 28.8" style="fill:none;stroke:#000000;"/>
   </g>
   <g id="patch_4">
    <path d="
M388.8 252
L388.8 28.8" style="fill:none;stroke:#000000;"/>
   </g>
   <g id="patch_5">
    <path d="
M54 252
L388.8 252" style="fill:none;stroke:#000000;"/>
   </g>
   <g id="patch_6">
    <path d="
M54 252
L54 28.8" style="fill:none;stroke:#000000;"/>
   </g>
   <g id="legend_1">
    <g id="patch_7">
     <path d="
M299.4 74.7356
L380.4 74.7356
Q382.8 74.7356 382.8 72.3356
L382.8 37.2
Q382.8 34.8 380.4 34.8
L299.4 34.8
Q297 34.8 297 37.2
L297 72.3356
Q297 74.7356 299.4 74.7356
z
" style="fill:#ffffff;opacity:0.5;stroke:#000000;"/>
    </g>
    <g id="line2d_29">
     <path d="
M305.4 46.2
L322.2 46.2" style="fill:none;stroke:#0000ff;stroke-width:2;"/>
    </g>
    <g id="line2d_30"/>
    <g id="text_16">
     <!-- $\nu = 1 s^{-1}$ -->
     <defs>
      <path d="
M8.6875 6.10938
Q11.375 1.51562 19.4844 1.51562
Q23 1.51562 26.1719 2.70312
Q29.3438 3.90625 31.4219 6.29688
Q33.5 8.6875 33.5 12.1094
Q33.5 14.7031 31.6406 16.3594
Q29.7812 18.0156 27.0938 18.6094
L21.6875 19.6719
Q17.9688 20.6094 15.5781 23.1406
Q13.1875 25.6875 13.1875 29.2969
Q13.1875 33.7344 15.5938 37.1562
Q18.0156 40.5781 21.9688 42.375
Q25.9219 44.1875 30.1719 44.1875
Q34.7188 44.1875 38.2969 42.0156
Q41.8906 39.8438 41.8906 35.5938
Q41.8906 33.2969 40.5938 31.5312
Q39.3125 29.7812 37.0156 29.7812
Q35.6875 29.7812 34.7344 30.6406
Q33.7969 31.5 33.7969 32.8125
Q33.7969 33.9844 34.4531 35.0781
Q35.1094 36.1875 36.2031 36.8438
Q37.3125 37.5 38.4844 37.5
Q37.5938 39.6562 35.1719 40.625
Q32.7656 41.6094 29.9844 41.6094
Q27.4375 41.6094 24.8906 40.5781
Q22.3594 39.5469 20.8125 37.5625
Q19.2812 35.5938 19.2812 32.9062
Q19.2812 31.1094 20.5469 29.7344
Q21.8281 28.375 23.6875 27.7812
L29.5 26.6094
Q32.2812 26.0312 34.5938 24.5312
Q36.9219 23.0469 38.25 20.7656
Q39.5938 18.5 39.5938 15.5781
Q39.5938 11.8594 37.5156 8.25
Q35.4531 4.64062 32.4219 2.48438
Q27.0938 -1.125 19.3906 -1.125
Q14.0625 -1.125 9.60938 1.3125
Q5.17188 3.76562 5.17188 8.59375
Q5.17188 11.3281 6.75 13.3438
Q8.34375 15.375 11.0781 15.375
Q12.7031 15.375 13.7969 14.3906
Q14.8906 13.4219 14.8906 11.8125
Q14.8906 9.51562 13.1719 7.8125
Q11.4688 6.10938 9.1875 6.10938
z
" id="Cmmi10-73"/>
      <path d="
M9.28125 0
L9.28125 3.51562
Q21.7812 3.51562 21.7812 6.6875
L21.7812 59.1875
Q16.6094 56.6875 8.6875 56.6875
L8.6875 60.2031
Q20.9531 60.2031 27.2031 66.6094
L28.6094 66.6094
Q28.9531 66.6094 29.2656 66.3281
Q29.5938 66.0625 29.5938 65.7188
L29.5938 6.6875
Q29.5938 3.51562 42.0938 3.51562
L42.0938 0
z
" id="Cmr10-31"/>
      <path d="
M10.2031 23
Q9.375 23 8.82812 23.625
Q8.29688 24.2656 8.29688 25
Q8.29688 25.7344 8.82812 26.3594
Q9.375 27 10.2031 27
L67.5781 27
Q68.3594 27 68.875 26.3594
Q69.3906 25.7344 69.3906 25
Q69.3906 24.2656 68.875 23.625
Q68.3594 23 67.5781 23
z
" id="Cmsy10-a1"/>
      <path d="
M6.29688 0
Q5.07812 0 5.07812 1.3125
L13.625 35.2969
Q14.0156 37.0156 14.1094 37.9844
Q14.1094 39.5938 7.625 39.5938
Q6.59375 39.5938 6.59375 40.9219
Q6.64062 41.1562 6.8125 41.7969
Q6.98438 42.4375 7.25 42.7656
Q7.51562 43.1094 8.01562 43.1094
L21.4844 44.1875
Q22.7031 44.1875 22.7031 42.9219
L12.8906 3.71875
Q20.7969 6.34375 27.4531 11.9531
Q34.125 17.5781 38.7344 25.1875
Q43.3594 32.8125 45.4062 41.0156
Q45.7969 42.4375 46.9688 43.3125
Q48.1406 44.1875 49.6094 44.1875
Q50.9219 44.1875 51.75 43.4062
Q52.5938 42.625 52.5938 41.3125
Q52.5938 39.7031 51.2656 36.4062
Q49.9531 33.1094 48.6875 30.5156
Q44.7344 22.6562 38.1875 16.1094
Q34.0781 12.0156 29.3594 8.84375
Q24.6562 5.67188 19.5312 3.4375
Q14.4062 1.21875 8.6875 0
z
" id="Cmmi10-ba"/>
      <path d="
M7.51562 13.2812
Q6.6875 13.2812 6.14062 13.9062
Q5.60938 14.5469 5.60938 15.2812
Q5.60938 16.1094 6.14062 16.6875
Q6.6875 17.2812 7.51562 17.2812
L70.3125 17.2812
Q71.0469 17.2812 71.5781 16.6875
Q72.125 16.1094 72.125 15.2812
Q72.125 14.5469 71.5781 13.9062
Q71.0469 13.2812 70.3125 13.2812
z

M7.51562 32.7188
Q6.6875 32.7188 6.14062 33.2969
Q5.60938 33.8906 5.60938 34.7188
Q5.60938 35.4531 6.14062 36.0781
Q6.6875 36.7188 7.51562 36.7188
L70.3125 36.7188
Q71.0469 36.7188 71.5781 36.0781
Q72.125 35.4531 72.125 34.7188
Q72.125 33.8906 71.5781 33.2969
Q71.0469 32.7188 70.3125 32.7188
z
" id="Cmr10-3d"/>
     </defs>
     <g transform="translate(335.4 50.64)scale(0.12 -0.12)">
      <use transform="translate(0.0 2.8578125)" xlink:href="#Cmmi10-ba"/>
      <use transform="translate(66.97265625 2.8578125)" xlink:href="#Cmr10-3d"/>
      <use transform="translate(151.03125 2.8578125)" xlink:href="#Cmr10-31"/>
      <use transform="translate(201.03125 2.8578125)" xlink:href="#Cmmi10-73"/>
      <use transform="translate(247.80859375 45.3734375)scale(0.7)" xlink:href="#Cmsy10-a1"/>
      <use transform="translate(302.188476562 45.3734375)scale(0.7)" xlink:href="#Cmr10-31"/>
     </g>
    </g>
    <g id="line2d_31">
     <path d="
M305.4 65.4956
L322.2 65.4956" style="fill:none;stroke:#008000;stroke-width:2;"/>
    </g>
    <g id="line2d_32"/>
    <g id="text_17">
     <!-- $\nu = 2 s^{-1}$ -->
     <defs>
      <path d="
M4.98438 0
L4.98438 2.6875
Q4.98438 2.9375 5.17188 3.21875
L20.7031 20.4062
Q24.2188 24.2188 26.4062 26.7969
Q28.6094 29.3906 30.75 32.7656
Q32.9062 36.1406 34.1562 39.625
Q35.4062 43.1094 35.4062 47.0156
Q35.4062 51.125 33.8906 54.8594
Q32.375 58.5938 29.375 60.8438
Q26.375 63.0938 22.125 63.0938
Q17.7812 63.0938 14.3125 60.4688
Q10.8438 57.8594 9.42188 53.7188
Q9.8125 53.8125 10.5 53.8125
Q12.75 53.8125 14.3281 52.2969
Q15.9219 50.7812 15.9219 48.3906
Q15.9219 46.0938 14.3281 44.5
Q12.75 42.9219 10.5 42.9219
Q8.15625 42.9219 6.5625 44.5469
Q4.98438 46.1875 4.98438 48.3906
Q4.98438 52.1562 6.39062 55.4375
Q7.8125 58.7344 10.4688 61.2969
Q13.1406 63.875 16.4844 65.2344
Q19.8281 66.6094 23.5781 66.6094
Q29.2969 66.6094 34.2188 64.1875
Q39.1562 61.7656 42.0312 57.3438
Q44.9219 52.9375 44.9219 47.0156
Q44.9219 42.6719 43.0156 38.7656
Q41.1094 34.8594 38.125 31.6562
Q35.1562 28.4688 30.5156 24.4062
Q25.875 20.3594 24.4219 19
L13.0938 8.10938
L22.7031 8.10938
Q29.7812 8.10938 34.5469 8.21875
Q39.3125 8.34375 39.5938 8.59375
Q40.7656 9.85938 42 17.8281
L44.9219 17.8281
L42.0938 0
z
" id="Cmr10-32"/>
     </defs>
     <g transform="translate(335.4 69.935625)scale(0.12 -0.12)">
      <use transform="translate(0.0 2.8578125)" xlink:href="#Cmmi10-ba"/>
      <use transform="translate(66.97265625 2.8578125)" xlink:href="#Cmr10-3d"/>
      <use transform="translate(151.03125 2.8578125)" xlink:href="#Cmr10-32"/>
      <use transform="translate(201.03125 2.8578125)" xlink:href="#Cmmi10-73"/>
      <use transform="translate(247.80859375 45.3734375)scale(0.7)" xlink:href="#Cmsy10-a1"/>
      <use transform="translate(302.188476562 45.3734375)scale(0.7)" xlink:href="#Cmr10-31"/>
     </g>
    </g>
   </g>
  </g>
 </g>
 <defs>
  <clipPath id="p124b8dd147">
   <rect height="223.2" width="334.8" x="54.0" y="28.8"/>
  </clipPath>
 </defs>
</svg>
